<svg xmlns="http://www.w3.org/2000/svg" width="32" height="22" viewBox="0 0 32 22">
  <g id="youtube" transform="translate(0 -80)">
    <g id="Group_75" data-name="Group 75" transform="translate(0 80)">
      <path id="Path_9" data-name="Path 9" d="M30.64,82.12c-.868-1.544-1.81-1.828-3.728-1.936C25,80.054,20.178,80,16,80s-9,.054-10.916.182c-1.914.11-2.858.392-3.734,1.938C.46,83.662,0,86.318,0,90.994v.016c0,4.656.46,7.332,1.354,8.858.876,1.544,1.818,1.824,3.732,1.954C7,101.934,11.822,102,16,102s8.992-.066,10.91-.176c1.918-.13,2.86-.41,3.728-1.954.9-1.526,1.358-4.2,1.358-8.858V91C32,86.318,31.544,83.662,30.64,82.12ZM12,97V85l10,6Z" transform="translate(0 -80)" fill="#f2f2f2"/>
    </g>
  </g>
</svg>
